<svg xmlns="http://www.w3.org/2000/svg" viewBox="0 0 512 512">
  <defs>
    <linearGradient id="bg" x1="0" y1="0" x2="1" y2="1">
      <stop offset="0" stop-color="#1a2744"/>
      <stop offset="1" stop-color="#2d4373"/>
    </linearGradient>
  </defs>
  <rect width="512" height="512" rx="112" fill="url(#bg)"/>
  <rect x="112" y="96" width="288" height="320" rx="36" fill="#f8fafc"/>
  <path d="M112 132a36 36 0 0 1 36-36h216a36 36 0 0 1 36 36v52H112z" fill="#2563eb"/>
  <rect x="160" y="72" width="24" height="48" rx="12" fill="#bfdbfe"/>
  <rect x="328" y="72" width="24" height="48" rx="12" fill="#bfdbfe"/>
  <rect x="148" y="216" width="100" height="76" rx="18" fill="#2563eb"/>
  <rect x="264" y="216" width="100" height="76" rx="18" fill="#dc2626"/>
  <rect x="148" y="308" width="100" height="76" rx="18" fill="#ea580c"/>
  <rect x="264" y="308" width="100" height="76" rx="18" fill="#64748b"/>
</svg>
